<svg xmlns="http://www.w3.org/2000/svg" width="21.78" height="22.611" viewBox="0 0 21.78 22.611">
  <path id="Path_34" data-name="Path 34" d="M1105.516,497.073a2.621,2.621,0,0,0-2.072-1.007H1100.9v-.485a5.728,5.728,0,0,0-1.795-4.154,5.654,5.654,0,0,0-4.262-1.54,5.816,5.816,0,0,0-5.354,5.892v.287h-2.546a2.635,2.635,0,0,0-2.566,3.241l1.9,9.856.023.089a4.775,4.775,0,0,0,4.52,3.235h8.815a4.77,4.77,0,0,0,4.531-3.265l1.839-9.9A2.622,2.622,0,0,0,1105.516,497.073Zm-14.7-1.294a4.484,4.484,0,0,1,4.1-4.563,4.375,4.375,0,0,1,4.645,4.366v.485h-8.748Zm13.886,3.267-1.814,9.8a3.44,3.44,0,0,1-3.254,2.313h-8.815a3.444,3.444,0,0,1-3.246-2.292l-1.9-9.844a1.307,1.307,0,0,1,1.267-1.622h2.546v.972a.665.665,0,1,0,1.331,0V497.4h8.748v.972a.665.665,0,1,0,1.331,0V497.4h2.546a1.3,1.3,0,0,1,1.026.5A1.321,1.321,0,0,1,1104.705,499.046Z" transform="translate(-1084.302 -489.876)"/>
</svg>
